<mxfile host="app.diagrams.net" modified="2022-06-26T09:51:39.523Z" agent="5.0 (Macintosh; Intel Mac OS X 10_15_7) AppleWebKit/537.36 (KHTML, like Gecko) Chrome/103.0.0.0 Safari/537.36" etag="Yv6vyhP6mGdXwGYQ2T71" version="17.4.6" type="github">
  <diagram id="vN7Vrmd605lj-jvAdt1X" name="Page-1">
    <mxGraphModel dx="1234" dy="740" grid="1" gridSize="10" guides="1" tooltips="1" connect="1" arrows="1" fold="1" page="1" pageScale="1" pageWidth="827" pageHeight="1169" math="0" shadow="0">
      <root>
        <mxCell id="0" />
        <mxCell id="1" parent="0" />
        <mxCell id="l4BgecAevKy1bhrgdc4N-7" style="edgeStyle=none;rounded=0;orthogonalLoop=1;jettySize=auto;html=1;entryX=0;entryY=0.5;entryDx=0;entryDy=0;exitX=1;exitY=0.5;exitDx=0;exitDy=0;" edge="1" parent="1" source="l4BgecAevKy1bhrgdc4N-1" target="l4BgecAevKy1bhrgdc4N-4">
          <mxGeometry relative="1" as="geometry" />
        </mxCell>
        <mxCell id="l4BgecAevKy1bhrgdc4N-8" style="edgeStyle=none;rounded=0;orthogonalLoop=1;jettySize=auto;html=1;entryX=0;entryY=0.5;entryDx=0;entryDy=0;" edge="1" parent="1" source="l4BgecAevKy1bhrgdc4N-1" target="l4BgecAevKy1bhrgdc4N-3">
          <mxGeometry relative="1" as="geometry" />
        </mxCell>
        <mxCell id="l4BgecAevKy1bhrgdc4N-9" style="edgeStyle=none;rounded=0;orthogonalLoop=1;jettySize=auto;html=1;entryX=0;entryY=0.5;entryDx=0;entryDy=0;exitX=1;exitY=0.5;exitDx=0;exitDy=0;" edge="1" parent="1" source="l4BgecAevKy1bhrgdc4N-1" target="l4BgecAevKy1bhrgdc4N-2">
          <mxGeometry relative="1" as="geometry" />
        </mxCell>
        <mxCell id="l4BgecAevKy1bhrgdc4N-1" value="/bos/statemachine/{cluster_appname}" style="rounded=0;whiteSpace=wrap;html=1;" vertex="1" parent="1">
          <mxGeometry x="70" y="360" width="210" height="40" as="geometry" />
        </mxCell>
        <mxCell id="l4BgecAevKy1bhrgdc4N-2" value="/intervening_state" style="rounded=0;whiteSpace=wrap;html=1;" vertex="1" parent="1">
          <mxGeometry x="320" y="480" width="210" height="40" as="geometry" />
        </mxCell>
        <mxCell id="l4BgecAevKy1bhrgdc4N-3" value="/current_state" style="rounded=0;whiteSpace=wrap;html=1;" vertex="1" parent="1">
          <mxGeometry x="320" y="360" width="210" height="40" as="geometry" />
        </mxCell>
        <mxCell id="l4BgecAevKy1bhrgdc4N-4" value="/leader(ip，临时节点)" style="rounded=0;whiteSpace=wrap;html=1;" vertex="1" parent="1">
          <mxGeometry x="320" y="240" width="210" height="40" as="geometry" />
        </mxCell>
      </root>
    </mxGraphModel>
  </diagram>
</mxfile>
